<svg xmlns="http://www.w3.org/2000/svg" xmlns:xlink="http://www.w3.org/1999/xlink" width="17" height="15"><image overflow="visible" width="17" height="15" xlink:href="t.png"/><path fill="#FFF" d="M10.95.14a3.1 3.1 0 0 1 3.58 1.18c.67-.23 1.33-.48 2-.7 0 .86-.51 1.5-.85 1.76.69.17 1.3-.49 1.3-.49-.16 1-1 1.79-1.56 2.03C15.2 10.67 12.25 15.13 5.34 15H4.9c-.41 0-4.17-.46-4.9-1.89 2.27.2 3.9-.42 4.7-1.18-.97-.3-2.69-.47-2.99-2.95.35.11.57.23 1.2.12C1.7 8.25.36 7.53.44 5.33a1.9 1.9 0 0 0 1.34.47C1.09 5.56-.18 2.44.89.85c1.82 1.85 3.74 3.6 7.16 3.77.2-2.29 1.13-3.83 2.9-4.48z"/></svg>